<svg width="40" height="40" viewBox="0 0 40 40" fill="none" xmlns="http://www.w3.org/2000/svg">
<path d="M36.25 20C36.25 11.0258 28.9742 3.75 20 3.75C11.0258 3.75 3.75 11.0258 3.75 20C3.75 28.9742 11.0258 36.25 20 36.25C28.9742 36.25 36.25 28.9742 36.25 20Z" stroke="#5F349C" stroke-miterlimit="10"/>
<path d="M34.8101 13.4484C33.5554 13.4562 33.6789 15.771 32.1156 14.6788C31.5351 14.2741 31.1781 13.6859 30.4492 13.5069C29.8125 13.3507 29.1601 13.5132 28.5312 13.6218C27.8164 13.7452 26.9687 13.8007 26.4265 14.3421C25.9023 14.8632 25.625 15.5624 25.0671 16.0866C23.9882 17.1023 23.5328 18.2108 24.2312 19.6468C24.9031 21.0273 26.3086 21.7765 27.825 21.678C29.3148 21.5788 30.8625 20.7148 30.8195 22.8796C30.8039 23.6452 30.964 24.1765 31.1992 24.8882C31.4171 25.5444 31.4023 26.1804 31.4523 26.8577C31.5445 28.1234 31.7773 29.5421 32.4054 30.6601L33.5773 29.0069C33.7218 28.8023 34.0242 28.5155 34.0961 28.2741C34.2234 27.8468 33.9726 27.1124 33.9437 26.6335C33.9148 26.1546 33.9289 25.6694 33.8554 25.1905C33.7523 24.5194 33.3554 23.8905 33.3007 23.2273C33.2 21.9921 33.4257 21.0062 32.4742 19.9734C31.5554 18.9773 30.2086 18.7382 28.9218 18.9405C28.2734 19.0421 25.6632 19.4593 26.7109 17.9773C26.9179 17.6859 27.2796 17.4468 27.5125 17.1694C27.7148 16.928 27.8906 16.4843 28.1281 16.296C28.3656 16.1077 29.4562 15.8913 29.7687 15.9874C30.0812 16.0835 30.407 16.5343 30.6781 16.7343C31.179 17.1115 31.7635 17.3624 32.382 17.4655C33.4492 17.6218 35.6804 17.0015 35.6632 15.6327C35.6601 14.9765 35.0507 14.0624 34.8101 13.4484ZM22.457 24.7108C22.0406 22.9577 19.6586 22.3718 18.3742 21.421C17.6359 20.8741 16.9789 20.0296 16.0093 19.9608C15.5625 19.9288 15.1882 20.0257 14.7453 19.9109C14.339 19.8062 14.0203 19.5874 13.5875 19.6444C12.7789 19.7507 12.2687 20.6148 11.4 20.4976C10.5757 20.3866 9.72652 19.4226 9.53902 18.6374C9.2984 17.628 10.0968 17.3007 10.9523 17.2109C11.3093 17.1734 11.7101 17.1327 12.0531 17.2632C12.5046 17.4312 12.7179 17.8734 13.1234 18.0968C13.8836 18.5132 14.0375 17.8476 13.9211 17.1726C13.7468 16.1616 13.5437 15.7491 14.4453 15.0538C15.0703 14.5741 15.6046 14.2273 15.5046 13.3655C15.4453 12.8593 15.1679 12.6304 15.4265 12.1265C15.6226 11.7429 16.1609 11.3968 16.5117 11.1679C17.4171 10.5773 20.3906 10.621 19.1757 8.96788C18.8187 8.48273 18.1601 7.61554 17.5351 7.49679C16.7539 7.34913 16.407 8.22101 15.8625 8.60538C15.3 9.00304 14.2046 9.4546 13.6414 8.83976C12.8836 8.01241 14.1437 7.74054 14.4226 7.16319C14.7015 6.58585 13.7765 5.49444 13.2812 5.21788L10.9523 7.8296C10.8854 8.26699 10.9087 8.71344 11.0207 9.1415C11.1328 9.56955 11.3312 9.97015 11.6039 10.3187C12.0671 10.9148 12.8046 11.1062 12.8382 11.9202C12.8711 12.7015 12.7492 13.1015 12.2382 13.6507C12.0171 13.8851 11.8609 14.2179 11.6359 14.4374C11.3601 14.7054 11.4625 14.6234 11.032 14.6968C10.2226 14.8335 9.53355 15.0444 8.75152 15.2601C7.4484 15.6202 7.32808 13.4913 6.73433 12.6562L4.78121 14.2335C4.76012 14.4921 5.10152 14.9679 5.19449 15.2491C5.72808 16.8562 6.80465 18.0991 7.49996 19.6366C8.23199 21.2648 10.1976 20.8132 11.0656 22.2398C11.8359 23.5054 11.0132 25.1077 11.5898 26.4327C12.0086 27.3944 12.9961 27.6046 13.6773 28.3077C14.3734 29.0179 14.3586 29.9898 14.4648 30.914C14.5846 32.0011 14.779 33.0786 15.0468 34.139C15.1414 34.5054 15.2281 34.9898 15.4789 35.2921C15.6507 35.4999 16.2406 35.6788 16.0023 35.7476C16.3351 35.8023 16.9281 36.1132 17.2054 35.8851C17.5711 35.5851 17.4734 34.6616 17.5367 34.2444C17.7265 33.0023 18.3484 31.7874 19.1875 30.8577C20.0164 29.9405 21.1523 29.3194 21.8523 28.2796C22.5343 27.2655 22.7398 25.8976 22.457 24.7108ZM19.8484 26.7671C19.3796 27.6038 18.3359 28.164 17.6648 28.8288C17.4828 29.0093 17.0953 29.6343 16.8671 29.4991C16.7039 29.4023 16.6484 28.5913 16.5882 28.4054C16.2779 27.4691 15.6854 26.6518 14.8921 26.0655C14.6476 25.8804 14.0414 25.6398 13.9015 25.3858C13.7453 25.1101 13.8859 24.4593 13.8914 24.1593C13.9 23.7218 13.7007 22.9944 13.8086 22.5968C13.9336 22.1382 13.6929 22.4148 14.1031 22.3241C14.3195 22.2757 15.2132 22.4327 15.4828 22.489C15.9109 22.578 16.1468 22.8444 16.4843 23.114C17.3718 23.8257 18.3492 24.3765 19.3437 24.9218C20.114 25.3483 20.3406 25.8882 19.8484 26.7671ZM14.4109 5.24132C14.7812 5.60304 15.1296 6.03116 15.682 6.0671C16.2046 6.10226 16.6976 5.81944 17.1539 6.17491C17.6601 6.56554 18.025 7.06007 18.6968 7.18194C19.3468 7.29991 20.0351 6.92023 20.1961 6.25538C20.3523 5.62179 20.0156 4.93273 19.9953 4.29679C19.9953 4.20851 20.0429 3.81632 19.982 3.74991C19.9367 3.69991 19.5586 3.75616 19.5007 3.75773C19.0773 3.77023 18.6549 3.79939 18.2336 3.84523C16.6975 4.01149 15.1931 4.39691 13.7664 4.98976C13.9562 5.12101 14.1945 5.17335 14.4109 5.24132ZM27.8437 9.63038C28.507 9.63038 29.1804 9.33351 28.9664 8.56632C28.7867 7.92335 28.4804 7.22569 27.7351 7.57257C27.2609 7.79288 26.589 8.35382 26.5336 8.91007C26.4703 9.54132 27.4015 9.63038 27.8437 9.63038ZM27.314 12.9874C27.9914 13.3929 28.9961 13.2023 29.507 12.6234C29.9062 12.1702 30.1414 11.3835 30.8593 11.3843C31.1754 11.3836 31.4791 11.5074 31.7046 11.7288C32.0015 12.0359 31.9429 12.3241 32.0062 12.7085C32.1476 13.5718 33.0734 12.7577 33.3148 12.4234C33.4711 12.2054 33.6828 11.8819 33.6117 11.5984C33.5461 11.3335 33.2367 11.0515 33.0992 10.8085C32.6976 10.1054 32.3671 9.28741 31.7656 8.71944C31.1867 8.17257 30.475 8.23585 29.9257 8.80382C29.4757 9.27257 28.9531 9.64366 28.6453 10.214C28.4281 10.6148 28.1836 10.8062 27.7437 10.9101C27.5015 10.9671 27.225 10.9882 27.0218 11.1507C26.4562 11.596 26.7781 12.6655 27.314 12.9874Z" fill="#5F349C"/>
</svg>
