<svg width="40" height="40" viewBox="0 0 40 40" fill="none" xmlns="http://www.w3.org/2000/svg">
<path d="M9.66634 34.9999L12.333 23.3333L3.33301 15.3333L15.333 14.3333L19.9997 3.33325L24.6663 14.3333L36.6663 15.3333L31.333 19.9999H29.9997C28.833 19.9999 27.6663 20.1666 26.4997 20.6666L30.1663 17.4999L22.833 16.8333L19.9997 10.1666L17.1663 16.8333L9.83301 17.4999L15.333 22.3333L13.6663 29.4999L19.9997 25.6666L20.833 26.1666C20.4997 26.9999 20.1663 27.9999 20.1663 28.8333L9.66634 34.9999ZM29.6663 35.3333L24.9997 30.3333L26.9997 28.3333L29.6663 30.9999L35.6663 24.9999L37.6663 27.3333L29.6663 35.3333Z" fill="#5F349C"/>
</svg>
