<svg width="40" height="40" viewBox="0 0 40 40" fill="none" xmlns="http://www.w3.org/2000/svg">
<path d="M33.3337 18.3334H38.3337V21.6667H33.3337V18.3334ZM1.66699 18.3334H6.66699V21.6667H1.66699V18.3334ZM21.667 1.66675V6.66675H18.3337V1.66675H21.667ZM8.20033 5.83342L11.7503 9.40008L9.38366 11.7501L5.83366 8.21675L8.20033 5.83342ZM28.2503 9.38342L31.7837 5.83342L34.167 8.21675L30.617 11.7501L28.2503 9.38342ZM20.0003 10.0001C22.6525 10.0001 25.196 11.0537 27.0714 12.929C28.9468 14.8044 30.0003 17.3479 30.0003 20.0001C30.0003 23.7001 27.9837 26.9334 25.0003 28.6667V31.6667C25.0003 32.1088 24.8247 32.5327 24.5122 32.8453C24.1996 33.1578 23.7757 33.3334 23.3337 33.3334H16.667C16.225 33.3334 15.801 33.1578 15.4885 32.8453C15.1759 32.5327 15.0003 32.1088 15.0003 31.6667V28.6667C12.017 26.9334 10.0003 23.7001 10.0003 20.0001C10.0003 17.3479 11.0539 14.8044 12.9293 12.929C14.8046 11.0537 17.3482 10.0001 20.0003 10.0001ZM23.3337 35.0001V36.6667C23.3337 37.1088 23.1581 37.5327 22.8455 37.8453C22.5329 38.1578 22.109 38.3334 21.667 38.3334H18.3337C17.8916 38.3334 17.4677 38.1578 17.1551 37.8453C16.8426 37.5327 16.667 37.1088 16.667 36.6667V35.0001H23.3337ZM18.3337 30.0001H21.667V26.4501C24.5503 25.7167 26.667 23.1001 26.667 20.0001C26.667 18.232 25.9646 16.5363 24.7144 15.286C23.4641 14.0358 21.7684 13.3334 20.0003 13.3334C18.2322 13.3334 16.5365 14.0358 15.2863 15.286C14.036 16.5363 13.3337 18.232 13.3337 20.0001C13.3337 23.1001 15.4503 25.7167 18.3337 26.4501V30.0001Z" fill="#5F349C"/>
</svg>
