<svg width="40" height="41" viewBox="0 0 40 41" fill="none" xmlns="http://www.w3.org/2000/svg">
<path fill-rule="evenodd" clip-rule="evenodd" d="M13.705 11.3599C14.3554 10.6427 14.7836 9.75219 14.9376 8.79638C15.0916 7.84056 14.9648 6.8606 14.5726 5.97545C14.1804 5.09031 13.5397 4.33807 12.7282 3.81006C11.9167 3.28205 10.9694 3.00098 10.0013 3.00098C9.03311 3.00098 8.08579 3.28205 7.27431 3.81006C6.46283 4.33807 5.8221 5.09031 5.4299 5.97545C5.0377 6.8606 4.91091 7.84056 5.06492 8.79638C5.21893 9.75219 5.64712 10.6427 6.2975 11.3599C6.0975 11.4649 5.90583 11.5782 5.7225 11.6999C4.58 12.4624 3.8475 13.4599 3.39 14.3824C2.8447 15.4936 2.54135 16.7078 2.5 17.9449V22.9999C2.5 23.6629 2.76339 24.2988 3.23223 24.7676C3.70107 25.2365 4.33696 25.4999 5 25.4999H11.25C11.6876 24.6119 12.265 23.7999 12.96 23.0949L12.9275 22.9999H5V17.9999C5 17.9999 5 12.9999 10 12.9999C12.5175 12.9999 13.7675 14.2674 14.3875 15.5249C14.95 14.8899 15.62 14.3499 16.37 13.9349C15.7393 12.8447 14.8162 11.9528 13.705 11.3599ZM10 10.4999C10.663 10.4999 11.2989 10.2365 11.7678 9.76765C12.2366 9.29881 12.5 8.66292 12.5 7.99988C12.5 7.33684 12.2366 6.70095 11.7678 6.23211C11.2989 5.76327 10.663 5.49988 10 5.49988C9.33696 5.49988 8.70107 5.76327 8.23223 6.23211C7.76339 6.70095 7.5 7.33684 7.5 7.99988C7.5 8.66292 7.76339 9.29881 8.23223 9.76765C8.70107 10.2365 9.33696 10.4999 10 10.4999ZM35 25.4999H28.75C28.3124 24.6119 27.735 23.7999 27.04 23.0949L27.0725 22.9999H35V17.9999C35 17.9999 35 12.9999 30 12.9999C27.4825 12.9999 26.2325 14.2674 25.6125 15.5249C25.0469 14.886 24.3765 14.3482 23.63 13.9349C24.2607 12.8447 25.1838 11.9528 26.295 11.3599C25.6446 10.6427 25.2164 9.75219 25.0624 8.79638C24.9084 7.84056 25.0352 6.8606 25.4274 5.97545C25.8196 5.09031 26.4603 4.33807 27.2718 3.81006C28.0833 3.28205 29.0306 3.00098 29.9988 3.00098C30.9669 3.00098 31.9142 3.28205 32.7257 3.81006C33.5372 4.33807 34.1779 5.09031 34.5701 5.97545C34.9623 6.8606 35.0891 7.84056 34.9351 8.79638C34.7811 9.75219 34.3529 10.6427 33.7025 11.3599C33.9025 11.4649 34.0942 11.5782 34.2775 11.6999C35.42 12.4624 36.1525 13.4599 36.61 14.3824C37.1473 15.4663 37.4505 16.6511 37.5 17.8599V22.9999C37.5 23.6629 37.2366 24.2988 36.7678 24.7676C36.2989 25.2365 35.663 25.4999 35 25.4999ZM30 10.4999C30.663 10.4999 31.2989 10.2365 31.7678 9.76765C32.2366 9.29881 32.5 8.66292 32.5 7.99988C32.5 7.33684 32.2366 6.70095 31.7678 6.23211C31.2989 5.76327 30.663 5.49988 30 5.49988C29.337 5.49988 28.7011 5.76327 28.2322 6.23211C27.7634 6.70095 27.5 7.33684 27.5 7.99988C27.5 8.66292 27.7634 9.29881 28.2322 9.76765C28.7011 10.2365 29.337 10.4999 30 10.4999Z" fill="#5F349C"/>
<path fill-rule="evenodd" clip-rule="evenodd" d="M25 20.5C25 21.7925 24.51 22.9725 23.705 23.86C24.9647 24.5421 25.9808 25.5993 26.6125 26.885C27.1599 27.9935 27.4626 29.2068 27.5 30.4425V35.5C27.5 36.1631 27.2366 36.799 26.7678 37.2678C26.2989 37.7366 25.663 38 25 38H15C14.337 38 13.7011 37.7366 13.2322 37.2678C12.7634 36.799 12.5 36.1631 12.5 35.5V30.445C12.5012 30.3324 12.5062 30.2198 12.515 30.1075C12.5968 28.9863 12.8939 27.8913 13.39 26.8825C14.021 25.5972 15.0363 24.54 16.295 23.8575C15.7498 23.2559 15.3594 22.5306 15.1573 21.7443C14.9553 20.958 14.9477 20.1343 15.1354 19.3444C15.323 18.5546 15.7001 17.8222 16.2342 17.2108C16.7683 16.5993 17.4432 16.1271 18.2007 15.835C18.9582 15.5428 19.7754 15.4395 20.5817 15.534C21.3881 15.6284 22.1593 15.9178 22.8288 16.3771C23.4982 16.8364 24.0457 17.4518 24.424 18.1702C24.8023 18.8885 25 19.6882 25 20.5ZM15 30.5V35.5H25V30.5C25 30.5 25 25.5 20 25.5C15 25.5 15 30.5 15 30.5ZM22.5 20.5C22.5 21.1631 22.2366 21.799 21.7678 22.2678C21.2989 22.7366 20.663 23 20 23C19.337 23 18.7011 22.7366 18.2322 22.2678C17.7634 21.799 17.5 21.1631 17.5 20.5C17.5 19.837 17.7634 19.2011 18.2322 18.7323C18.7011 18.2634 19.337 18 20 18C20.663 18 21.2989 18.2634 21.7678 18.7323C22.2366 19.2011 22.5 19.837 22.5 20.5Z" fill="#5F349C"/>
</svg>
